<svg width="235" height="403" viewBox="0 0 235 403" fill="none" xmlns="http://www.w3.org/2000/svg">
<path d="M62.2874 401.723L62.2495 401.969C62.2046 401.73 62.1613 401.485 62.1202 401.243C62.0451 400.853 61.9799 400.463 61.9185 400.07C59.481 384.725 60.8223 369.016 65.8264 354.307C66.7883 351.435 67.8838 348.617 69.113 345.851C73.8138 335.139 80.4777 325.402 88.7607 317.142C91.4502 314.389 94.5187 312.035 97.8735 310.15C98.366 309.889 98.8613 309.641 99.3675 309.413C102.47 307.908 105.963 307.402 109.365 307.964C110.601 308.197 111.799 308.599 112.925 309.159C113.32 309.351 113.7 309.562 114.073 309.787C116.347 311.278 118.289 313.223 119.776 315.5C121.264 317.776 122.266 320.335 122.719 323.017C123.365 327.017 123.218 331.105 122.284 335.048C122.204 335.424 122.118 335.8 122.026 336.173C121.364 338.801 120.533 341.383 119.537 343.904C109.568 369.553 88.1449 392.31 62.2874 401.723Z" fill="#5F8070"/>
<path d="M112.859 309.242C105.08 320.42 97.7324 331.881 90.815 343.626C83.9061 355.361 77.4489 367.346 71.4436 379.583C68.0841 386.429 64.8715 393.345 61.8058 400.33C61.4664 401.103 62.6114 401.775 62.9552 400.992C68.4303 388.523 74.3718 376.274 80.7798 364.243C87.1839 352.226 94.0377 340.462 101.341 328.953C105.428 322.514 109.65 316.165 114.008 309.904C114.496 309.204 113.344 308.544 112.859 309.242Z" fill="white"/>
<path d="M121.182 335.115C115.337 342.711 106.733 347.698 97.2356 348.993C94.586 349.354 91.9035 349.408 89.2417 349.151C88.3901 349.071 88.3842 350.398 89.2285 350.478C99.1342 351.311 108.969 348.204 116.597 341.83C118.737 340.041 120.661 338.01 122.331 335.777C122.843 335.097 121.69 334.439 121.182 335.115Z" fill="white"/>
<path d="M71.258 376.323C69.899 374.387 68.7699 372.3 67.8934 370.103C65.891 365.094 65.1802 359.662 65.8264 354.307C66.7883 351.435 67.8838 348.617 69.113 345.851C69.1874 345.959 69.2322 346.086 69.243 346.217C69.2537 346.348 69.23 346.48 69.1743 346.6C68.3087 348.675 67.6865 350.843 67.32 353.061C66.0043 360.971 67.8308 369.082 72.4098 375.665C72.4677 375.737 72.5063 375.822 72.5217 375.913C72.5371 376.004 72.5289 376.098 72.4979 376.185C72.4467 376.3 72.3661 376.4 72.2643 376.474C72.1625 376.549 72.043 376.596 71.9176 376.609C71.7922 376.623 71.6653 376.604 71.5496 376.554C71.4339 376.504 71.3334 376.424 71.258 376.323Z" fill="white"/>
<path d="M98.0716 309.309C96.4718 315.684 96.9482 322.403 99.4316 328.489C99.5196 328.641 99.6639 328.752 99.8333 328.798C100.003 328.844 100.184 328.822 100.336 328.736C100.486 328.646 100.595 328.501 100.641 328.333C100.687 328.164 100.666 327.985 100.583 327.831C98.2581 322.057 97.8266 315.694 99.3512 309.658C99.3909 309.491 99.3639 309.315 99.276 309.167C99.1881 309.019 99.0462 308.911 98.8802 308.865C98.7142 308.82 98.537 308.841 98.3862 308.924C98.2353 309.007 98.1225 309.145 98.0716 309.309Z" fill="white"/>
<path d="M62.1244 369.688L62.205 369.924C62.0541 369.733 61.902 369.536 61.7535 369.341C61.5059 369.031 61.2668 368.715 61.0299 368.396C51.7431 355.939 45.6341 341.405 43.2325 326.054C42.7505 323.065 42.4113 320.06 42.2149 317.039C41.402 305.37 42.7802 293.651 46.2784 282.489C47.3815 278.802 49.0052 275.292 51.1002 272.064C51.4152 271.604 51.7389 271.155 52.0812 270.718C54.1295 267.944 56.9877 265.873 60.2621 264.791C61.4645 264.422 62.7121 264.222 63.9694 264.195C64.4082 264.182 64.8427 264.192 65.2773 264.218C67.984 264.482 70.6069 265.302 72.9819 266.627C75.3569 267.952 77.4328 269.753 79.0796 271.917C81.5099 275.159 83.2781 278.848 84.2832 282.773C84.3872 283.144 84.4852 283.517 84.5772 283.89C85.2119 286.525 85.6751 289.198 85.964 291.892C89.0508 319.237 80.6503 349.341 62.1244 369.688Z" fill="#78A790"/>
<path d="M63.9487 264.299C62.2527 277.811 61.0697 291.374 60.3996 304.988C59.7324 318.589 59.5819 332.203 59.9479 345.829C60.1531 353.452 60.5206 361.069 61.0504 368.678C61.1089 369.52 62.4353 369.584 62.376 368.731C61.4324 355.146 61.0039 341.538 61.0903 327.908C61.1789 314.291 61.784 300.689 62.9056 287.105C63.5335 279.505 64.3231 271.92 65.2743 264.352C65.3806 263.505 64.0546 263.456 63.9487 264.299Z" fill="white"/>
<path d="M83.3378 283.345C81.6902 292.787 76.3873 301.2 68.5786 306.759C66.4001 308.309 64.0493 309.603 61.5731 310.612C60.7816 310.937 61.3928 312.115 62.1776 311.793C71.3368 307.93 78.6024 300.609 82.3968 291.421C83.461 288.844 84.2216 286.151 84.6634 283.398C84.8002 282.557 83.4736 282.51 83.3378 283.345Z" fill="white"/>
<path d="M58.2695 343.028C56.1668 341.945 54.1971 340.621 52.4004 339.082C48.3005 335.577 45.1478 331.097 43.2324 326.054C42.7504 323.065 42.4112 320.06 42.2148 317.039C42.3313 317.101 42.4297 317.192 42.5002 317.303C42.5708 317.415 42.6111 317.543 42.6171 317.674C42.8146 319.914 43.2708 322.123 43.9766 324.258C46.4859 331.874 51.871 338.208 58.9838 341.91C59.0685 341.947 59.1424 342.005 59.1983 342.078C59.2542 342.152 59.2904 342.238 59.3033 342.33C59.3115 342.456 59.2865 342.582 59.231 342.695C59.1754 342.808 59.0912 342.905 58.9866 342.975C58.8821 343.046 58.7609 343.088 58.6351 343.097C58.5093 343.106 58.3832 343.083 58.2695 343.028Z" fill="white"/>
<path d="M50.8851 271.228C52.4297 277.616 55.9728 283.345 60.9988 287.581C61.1473 287.674 61.3267 287.706 61.4982 287.668C61.6697 287.63 61.8194 287.527 61.9148 287.379C62.0054 287.23 62.0349 287.051 61.9974 286.881C61.9598 286.71 61.858 286.561 61.7132 286.463C56.9718 282.43 53.6338 276.995 52.1805 270.943C52.1378 270.776 52.0321 270.632 51.8855 270.542C51.7389 270.452 51.5631 270.422 51.395 270.459C51.2269 270.496 51.0798 270.597 50.9846 270.74C50.8895 270.884 50.8538 271.059 50.8851 271.228Z" fill="white"/>
<path d="M62.6983 401.886L62.8929 402.041C62.6629 401.961 62.4287 401.877 62.1988 401.793C61.8229 401.665 61.4516 401.528 61.08 401.387C46.5462 395.892 33.5716 386.936 23.2806 375.295C21.2643 373.036 19.3602 370.687 17.568 368.247C10.5983 358.853 5.44847 348.237 2.38437 336.947C1.32827 333.247 0.805715 329.415 0.832524 325.566C0.850224 325.009 0.881099 324.457 0.934209 323.904C1.16592 320.463 2.45893 317.179 4.63508 314.504C5.4498 313.546 6.39313 312.705 7.43825 312.006C7.80073 311.758 8.17225 311.533 8.55248 311.32C10.9754 310.085 13.6271 309.364 16.3417 309.201C19.0564 309.038 21.7754 309.438 24.3285 310.374C28.1223 311.797 31.5989 313.953 34.5598 316.719C34.8471 316.975 35.1301 317.236 35.4089 317.502C37.3625 319.38 39.1924 321.382 40.887 323.497C58.2149 344.875 67.3498 374.765 62.6983 401.886Z" fill="#92C6AD"/>
<path d="M7.47672 312.104C13.3247 324.403 19.6324 336.468 26.3998 348.299C33.1628 360.119 40.3678 371.671 48.0146 382.955C52.2931 389.267 56.7047 395.487 61.2494 401.613C61.7523 402.292 62.9041 401.631 62.3948 400.944C54.2832 390.005 46.5935 378.771 39.3256 367.24C32.0664 355.718 25.2513 343.932 18.8802 331.882C15.3161 325.14 11.8967 318.324 8.62208 311.435C8.2557 310.664 7.11167 311.337 7.47672 312.104Z" fill="white"/>
<path d="M34.0712 317.71C37.7684 326.553 37.8309 336.497 34.2452 345.386C33.2448 347.866 31.9605 350.222 30.4179 352.406C29.9256 353.106 31.0752 353.769 31.5632 353.076C37.1999 344.888 39.3792 334.806 37.628 325.021C37.1365 322.276 36.3272 319.598 35.2166 317.04C34.8793 316.258 33.7362 316.933 34.0712 317.71Z" fill="white"/>
<path d="M45.0918 381.499C42.7367 381.719 40.3641 381.664 38.0217 381.335C32.6793 380.59 27.6101 378.513 23.2804 375.295C21.2642 373.036 19.36 370.687 17.5679 368.247C17.6993 368.237 17.8312 368.26 17.9506 368.316C18.07 368.372 18.1728 368.458 18.2488 368.566C19.6214 370.346 21.1956 371.962 22.94 373.381C29.1559 378.446 37.1048 380.883 45.0918 380.172C45.1829 380.158 45.2763 380.167 45.363 380.198C45.4496 380.23 45.5267 380.283 45.5868 380.353C45.6615 380.455 45.7083 380.575 45.7225 380.7C45.7367 380.825 45.7178 380.952 45.6678 381.068C45.6177 381.184 45.5382 381.284 45.4371 381.36C45.3361 381.436 45.2171 381.483 45.0918 381.499Z" fill="white"/>
<path d="M0.201145 324.978C4.94324 329.529 11.014 332.448 17.5299 333.309C17.888 333.357 18.1898 332.97 18.1931 332.646C18.189 332.472 18.1178 332.305 17.9943 332.182C17.8708 332.058 17.7045 331.987 17.5299 331.983C11.3628 331.138 5.62333 328.357 1.1391 324.04C0.524293 323.447 -0.414855 324.384 0.201145 324.978Z" fill="white"/>
<path d="M153.236 226.94C154.531 226.052 155.616 224.891 156.414 223.538C157.212 222.185 157.704 220.674 157.855 219.111C158.006 217.548 157.812 215.97 157.287 214.49C156.763 213.01 155.92 211.663 154.818 210.543L158.985 117.525L137.77 119.907L139.002 210.891C137.245 212.867 136.273 215.418 136.271 218.062C136.268 220.707 137.236 223.26 138.991 225.238C140.745 227.216 143.165 228.482 145.79 228.796C148.416 229.109 151.065 228.449 153.236 226.94Z" fill="#E5A5A5"/>
<path d="M191.938 384.399L204.013 386.521L215.947 340.958L200.126 337.825L191.938 384.399Z" fill="#E5A5A5"/>
<path d="M225.329 401.827L187.38 395.156L189.957 380.494L213.244 384.588C215.17 384.926 217.01 385.641 218.659 386.69C220.308 387.74 221.735 389.104 222.857 390.705C223.979 392.306 224.775 394.112 225.199 396.02C225.623 397.929 225.667 399.902 225.329 401.827Z" fill="#2F2E41"/>
<path d="M158.796 390.443L171.056 390.442L176.888 343.154L158.794 343.155L158.796 390.443Z" fill="#E5A5A5"/>
<path d="M194.7 401.825L156.169 401.827L156.169 386.94L179.813 386.939C183.761 386.939 187.547 388.507 190.339 391.299C193.131 394.091 194.7 397.877 194.7 401.825Z" fill="#2F2E41"/>
<path d="M210.949 377.494C210.757 377.494 210.566 377.483 210.376 377.46L195.946 376.272C195.289 376.195 194.655 375.985 194.081 375.655C193.508 375.325 193.008 374.882 192.611 374.352C192.214 373.823 191.929 373.219 191.773 372.576C191.617 371.933 191.594 371.265 191.704 370.613L205.028 295.932L196.025 248.458C195.951 248.072 195.741 247.726 195.432 247.483C195.124 247.24 194.738 247.118 194.346 247.137C193.954 247.157 193.582 247.317 193.299 247.589C193.016 247.861 192.841 248.227 192.806 248.618L181.55 375.245C181.426 376.516 180.814 377.689 179.842 378.517C178.87 379.345 177.615 379.763 176.341 379.683L162.746 379.176C161.554 379.092 160.435 378.574 159.599 377.721C158.763 376.868 158.269 375.738 158.209 374.545L157.295 222.778L227.777 213.968L232.7 290.009L232.681 290.089L215.69 373.764C215.431 374.827 214.823 375.772 213.964 376.448C213.104 377.124 212.042 377.492 210.949 377.494Z" fill="#2F2E41"/>
<path d="M180.533 57.2488C194.098 57.2488 205.094 46.2524 205.094 32.6877C205.094 19.1231 194.098 8.12671 180.533 8.12671C166.969 8.12671 155.972 19.1231 155.972 32.6877C155.972 46.2524 166.969 57.2488 180.533 57.2488Z" fill="#E5A5A5"/>
<path d="M203.676 233.87C199.834 233.893 196.067 232.815 192.819 230.764C180.921 223.329 167.408 226.284 160.412 228.707C159.718 228.951 158.977 229.034 158.247 228.95C157.516 228.867 156.813 228.62 156.191 228.227C155.577 227.841 155.057 227.321 154.672 226.706C154.287 226.091 154.046 225.396 153.967 224.675L141.244 111.049C139.112 92.0117 150.58 74.1127 168.512 68.4897C169.186 68.2784 169.871 68.078 170.567 67.8886C176.148 66.3756 181.992 66.1039 187.688 67.0926C193.385 68.0813 198.795 70.3063 203.539 73.6111C208.372 76.9523 212.413 81.312 215.379 86.3833C218.345 91.4547 220.163 97.1144 220.706 102.964L231.417 217.351C231.49 218.092 231.39 218.839 231.125 219.535C230.86 220.23 230.437 220.854 229.889 221.358C226.135 224.832 215.238 233.869 203.676 233.87Z" fill="#81B29A"/>
<path d="M164.935 135.415L136.231 132.259C135.414 132.169 134.627 131.905 133.922 131.483C133.217 131.061 132.611 130.493 132.145 129.816C131.679 129.139 131.365 128.369 131.224 127.56C131.083 126.751 131.117 125.92 131.326 125.125L138.632 97.2791C139.115 93.1033 141.234 89.2895 144.525 86.6738C147.816 84.0582 152.01 82.8542 156.187 83.3259C160.364 83.7976 164.183 85.9064 166.808 89.19C169.433 92.4736 170.648 96.6639 170.188 100.842L171.273 129.518C171.304 130.339 171.157 131.157 170.843 131.916C170.529 132.675 170.056 133.358 169.454 133.918C168.853 134.477 168.138 134.901 167.358 135.159C166.578 135.418 165.751 135.505 164.935 135.415Z" fill="#81B29A"/>
<path d="M231.302 222.957C232.481 221.919 233.418 220.636 234.047 219.197C234.676 217.758 234.982 216.198 234.943 214.628C234.905 213.058 234.522 211.516 233.823 210.11C233.124 208.703 232.125 207.468 230.896 206.489L223.823 113.647L203.035 118.327L215.238 208.741C213.731 210.914 213.073 213.564 213.39 216.189C213.707 218.814 214.975 221.232 216.955 222.984C218.935 224.736 221.49 225.701 224.134 225.696C226.778 225.691 229.328 224.717 231.302 222.957Z" fill="#E5A5A5"/>
<path d="M195.065 129.579C194.463 129.02 193.989 128.337 193.675 127.578C193.361 126.818 193.215 126 193.246 125.179L194.331 96.504C193.871 92.3255 195.086 88.1352 197.711 84.8516C200.336 81.568 204.155 79.4592 208.332 78.9875C212.509 78.5159 216.703 79.7198 219.994 82.3355C223.285 84.9511 225.404 88.7649 225.887 92.9407L233.193 120.787C233.402 121.582 233.437 122.412 233.295 123.221C233.154 124.031 232.84 124.8 232.374 125.477C231.909 126.154 231.303 126.723 230.597 127.145C229.892 127.566 229.105 127.831 228.288 127.921L199.585 131.077C198.768 131.167 197.941 131.08 197.161 130.822C196.381 130.563 195.666 130.139 195.065 129.579Z" fill="#81B29A"/>
<path d="M179.072 58.1741C178.636 58.1736 178.201 58.1228 177.776 58.0227L177.651 57.9924C156.057 54.6887 151.284 42.1809 150.237 36.9573C149.153 31.5491 150.387 26.3289 153.177 24.3015C151.656 19.4988 151.9 15.2405 153.904 11.6394C157.4 5.35914 164.985 3.2356 166.003 2.97584C172.061 -1.4934 179.309 1.49 180.628 2.09498C192.346 -2.24047 196.825 1.36841 197.635 2.17408C202.874 3.115 206.067 5.13844 207.127 8.18971C209.118 13.9207 202.821 21.0496 202.552 21.3504L202.413 21.5061L193.032 21.9529C192.142 21.9954 191.271 22.2244 190.475 22.6253C189.679 23.0261 188.977 23.5898 188.413 24.2797C187.849 24.9696 187.436 25.7704 187.202 26.63C186.967 27.4897 186.916 28.389 187.051 29.2698C187.305 30.4062 187.626 31.5266 188.012 32.6253C189.614 37.6316 190.814 41.9085 189.266 43.5344C188.915 43.8491 188.483 44.0587 188.019 44.1391C187.554 44.2196 187.077 44.1678 186.641 43.9895C185.174 43.5979 184.178 43.6799 183.682 44.2341C182.912 45.0935 183.147 47.2688 184.344 50.3596C184.72 51.3369 184.821 52.3984 184.637 53.4291C184.452 54.4597 183.989 55.4203 183.298 56.2068C182.778 56.8206 182.131 57.3143 181.401 57.6539C180.672 57.9936 179.877 58.171 179.072 58.1741Z" fill="#2F2E41"/>
</svg>
