<svg width="317" height="473" viewBox="0 0 317 473" fill="none" xmlns="http://www.w3.org/2000/svg">
<g clip-path="url(#clip0_18_1179)">
<path d="M202.95 107.48L158.768 64.5003L163.306 42.876C165.163 23.3677 187.319 10.2711 184.594 4.35547L215.74 16.8742L202.95 107.48Z" fill="#2F2E41"/>
<path d="M293.135 296.53L264.134 249.272L279.559 234.473L305.99 288.994C308.337 289.39 310.506 290.498 312.201 292.167C313.897 293.837 315.037 295.987 315.467 298.326C315.898 300.666 315.597 303.08 314.606 305.243C313.615 307.406 311.983 309.211 309.929 310.415C307.876 311.619 305.502 312.162 303.129 311.971C300.756 311.78 298.499 310.864 296.665 309.348C294.831 307.832 293.509 305.788 292.877 303.495C292.245 301.202 292.335 298.77 293.135 296.53Z" fill="#A0616A"/>
<path d="M203.191 146.382L216.286 133.614C216.286 133.614 227.738 130.082 238.311 148.34C248.884 166.598 272.09 216.219 272.09 216.219L280.794 224.51L281.937 227.347L289.521 234.4L288.055 237.837L296.907 240.541L270.897 263.861L257.597 249.755L257.542 241.362L251.766 238.903L246.069 234.185L244.019 226.434L203.191 146.382Z" fill="#2F2E41"/>
<path d="M151.21 183.566V258.453L238.412 242.808L216.321 175.435L151.21 183.566Z" fill="#A0616A"/>
<path d="M237.831 236.419L143.653 248.035L133.189 329.348L123.887 462.933L50.6377 579.094L85.5185 587.226L179.697 473.388L199.462 367.773L205.276 629.044L235.506 630.205L265.736 367.681C265.736 367.681 264.573 244.55 237.831 236.419Z" fill="#2F2E41"/>
<path d="M196.555 90.6366L159.349 80.1821L141.909 104.576L158.768 249.197C158.768 249.197 221.553 202.732 228.529 245.712L231.436 189.374C231.436 189.374 234.585 152.202 227.779 149.298C220.972 146.394 195.393 110.384 195.393 110.384L196.555 90.6366Z" fill="#81B29A"/>
<path d="M133.77 88.3134L120.344 101.727L102.377 233.515L147.567 278.662C147.567 278.662 196.555 191.697 161.675 119.677L155.17 86.0283L133.77 88.3134Z" fill="#2F2E41"/>
<path d="M195.393 105.669L245.389 152.202L261.666 282.303L222.135 273.01L225.623 176.596L190.742 113.869L195.393 105.669Z" fill="#2F2E41"/>
<path d="M190.298 390.332H49.3376C45.8291 390.328 42.4653 388.934 39.9844 386.456C37.5034 383.977 36.1079 380.616 36.104 377.111V322.799C36.1182 310.214 41.1283 298.149 50.0351 289.251C58.942 280.352 71.0182 275.347 83.6143 275.333H138.741C155.919 275.352 172.387 282.178 184.533 294.313C196.68 306.448 203.512 322.902 203.532 340.063V377.111C203.528 380.616 202.132 383.977 199.651 386.456C197.17 388.934 193.807 390.328 190.298 390.332Z" fill="#81B29A"/>
<path d="M100.23 277.551L112.847 212.114L116.467 193.337C116.89 191.146 113.529 190.207 113.104 192.411L100.487 257.847L96.8662 276.625C96.4437 278.816 99.8048 279.755 100.23 277.551Z" fill="#81B29A"/>
<path d="M275.13 97.2927L258.178 101.347L255.853 101.904L197.497 115.879C195.481 115.879 193.547 116.68 192.121 118.104C190.695 119.529 189.894 121.461 189.893 123.475V200.095C189.896 202.108 190.699 204.037 192.124 205.46C193.55 206.882 195.482 207.681 197.497 207.681L235.145 198.667L237.47 198.109L275.13 189.095C277.144 189.093 279.075 188.293 280.5 186.872C281.926 185.45 282.729 183.522 282.734 181.51V104.89C282.731 102.876 281.929 100.945 280.504 99.5208C279.078 98.0967 277.146 97.2955 275.13 97.2927Z" fill="#E6E6E6"/>
<path d="M280.467 152.992V106.516C280.467 105.602 280.288 104.697 279.938 103.853C279.588 103.008 279.075 102.241 278.428 101.595C277.781 100.949 277.013 100.436 276.168 100.087C275.323 99.7372 274.417 99.5575 273.503 99.5579L258.178 104.181L255.853 104.89L211.95 118.144C209.351 118.144 206.778 118.655 204.377 119.649C201.976 120.642 199.794 122.098 197.957 123.934C196.119 125.77 194.661 127.95 193.667 130.348C192.672 132.747 192.161 135.318 192.161 137.914V198.469C192.16 199.383 192.34 200.288 192.69 201.132C193.04 201.977 193.553 202.744 194.2 203.39C194.847 204.036 195.614 204.549 196.46 204.898C197.305 205.248 198.211 205.427 199.125 205.427L235.145 196.285L237.471 195.693L269.224 187.631C279.63 187.631 281.932 182.694 281.932 175.097C281.932 169.045 280.467 161.286 280.467 152.992Z" fill="white"/>
<path d="M237.47 145.174V198.109L235.145 198.667V146.336H192.16C191.852 146.336 191.556 146.214 191.338 145.996C191.12 145.778 190.998 145.482 190.998 145.174C190.998 144.866 191.12 144.571 191.338 144.353C191.556 144.135 191.852 144.013 192.16 144.013H236.308C236.461 144.012 236.612 144.042 236.753 144.1C236.895 144.158 237.023 144.244 237.131 144.352C237.239 144.46 237.325 144.588 237.383 144.729C237.441 144.87 237.471 145.022 237.47 145.174Z" fill="#E6E6E6"/>
<path d="M282.734 128.645V130.457C282.53 130.623 282.276 130.713 282.013 130.712H257.015C256.862 130.713 256.711 130.683 256.57 130.625C256.428 130.567 256.3 130.481 256.192 130.373C256.084 130.265 255.998 130.137 255.94 129.996C255.882 129.855 255.852 129.703 255.853 129.551V101.904L258.178 101.347V128.389H282.013C282.276 128.388 282.53 128.479 282.734 128.645Z" fill="#E6E6E6"/>
<path d="M235.505 151.621C239.358 151.621 242.482 148.501 242.482 144.652C242.482 140.802 239.358 137.682 235.505 137.682C231.653 137.682 228.529 140.802 228.529 144.652C228.529 148.501 231.653 151.621 235.505 151.621Z" fill="#81B29A"/>
<path d="M183.761 80.3028C203.55 80.3028 219.591 64.2761 219.591 44.506C219.591 24.736 203.55 8.70923 183.761 8.70923C163.973 8.70923 147.931 24.736 147.931 44.506C147.931 64.2761 163.973 80.3028 183.761 80.3028Z" fill="#A0616A"/>
<path d="M226.704 45.6937L224.088 52.8609L220.007 52.0013C220.346 49.45 220.18 46.857 219.518 44.3695C218.884 46.7122 217.602 48.8295 215.821 50.4796L203.101 45.8447C183.614 45.7054 179.615 76.0118 176.208 107.48L139.932 79.0785C140 77.1678 139.784 75.2576 139.293 73.4098C138.931 74.7654 138.341 76.0498 137.549 77.2083L133.188 73.7931L136.56 32.765C136.995 27.4781 138.605 22.3547 141.272 17.768C143.94 13.1813 147.597 9.24675 151.979 6.25103C156.361 3.25532 161.357 1.27386 166.602 0.451003C171.848 -0.371857 177.211 -0.0153957 182.301 1.49442L204.822 11.856L212.252 11.0661C225.181 15.7706 231.413 32.765 226.704 45.6937Z" fill="#2F2E41"/>
<path d="M140.485 274.752H85.3584C78.7043 274.75 72.1244 276.147 66.0467 278.854C59.969 281.56 54.5298 285.515 50.083 290.46C58.7928 282.585 70.1232 278.228 81.8703 278.237H136.997C154.175 278.256 170.643 285.082 182.789 297.217C194.936 309.352 201.768 325.806 201.788 342.967V380.015C201.79 382.67 200.988 385.263 199.487 387.453C201.27 386.241 202.729 384.613 203.738 382.709C204.747 380.806 205.275 378.684 205.276 376.53V339.482C205.256 322.321 198.424 305.868 186.278 293.733C174.131 281.597 157.663 274.771 140.485 274.752Z" fill="#3F3D56"/>
<path d="M116.765 103.646C120.339 100.558 126.073 101.899 129.31 104.83C133.365 108.501 135.045 113.976 136.39 119.101C139.516 131.548 141.265 144.301 141.606 157.13C142.084 170.005 141.579 182.893 140.867 195.75C140.13 209.055 139.287 222.356 138.489 235.658L135.755 281.236C135.621 283.477 139.109 283.469 139.243 281.236C140.93 253.109 142.71 224.985 144.293 196.852C145.794 170.177 146.582 142.752 139.371 116.755C137.747 110.899 135.331 104.701 130.157 101.083C125.461 97.7998 118.778 97.311 114.299 101.182C112.598 102.652 115.074 105.108 116.765 103.646Z" fill="#81B29A"/>
<path d="M184.345 165.327L134.695 201.069L144.081 222.688L194.212 178.463C196.769 179.059 199.447 178.854 201.884 177.877C204.321 176.9 206.397 175.197 207.832 173C209.267 170.804 209.99 168.219 209.904 165.597C209.818 162.975 208.926 160.443 207.35 158.345C205.774 156.247 203.59 154.684 201.095 153.869C198.599 153.054 195.913 153.025 193.401 153.788C190.888 154.55 188.672 156.066 187.051 158.131C185.431 160.195 184.486 162.707 184.345 165.327Z" fill="#A0616A"/>
<path d="M119.136 102.641C119.136 102.641 132.175 104.812 133.569 128.035C134.963 151.258 134.66 195.106 134.66 195.106L147.017 185.51L159.427 181.988L168.23 203.902L161.3 215.483L153.325 219.329L150.439 217.578L145.938 223.78C139.387 227.18 131.777 227.928 124.688 225.867C117.6 223.806 111.58 219.095 107.879 212.714L103.399 207.438L100.115 199.972L101.929 191.317L100.402 128.922C100.259 123.106 102.008 117.401 105.386 112.662C108.764 107.924 113.589 104.408 119.136 102.641Z" fill="#2F2E41"/>
<path d="M292.059 318.748L267.729 309.355C266.462 308.864 265.441 307.891 264.89 306.649C264.34 305.407 264.306 303.997 264.794 302.73L282.758 256.283C283.25 255.017 284.224 253.997 285.467 253.447C286.711 252.897 288.121 252.863 289.39 253.351L313.72 262.743C314.988 263.234 316.009 264.208 316.559 265.45C317.109 266.692 317.144 268.101 316.655 269.369L298.691 315.815C298.2 317.082 297.226 318.102 295.982 318.652C294.739 319.202 293.328 319.236 292.059 318.748Z" fill="#3F3D56"/>
<path d="M311.896 281.674C311.842 281.654 311.782 281.655 311.73 281.678C311.677 281.702 311.636 281.745 311.615 281.798L309.113 288.268C309.092 288.322 309.094 288.381 309.117 288.434C309.141 288.486 309.184 288.527 309.237 288.547C309.291 288.568 309.35 288.567 309.403 288.544C309.455 288.521 309.497 288.478 309.518 288.425L312.02 281.955C312.04 281.901 312.039 281.841 312.016 281.789C311.992 281.736 311.949 281.695 311.896 281.674Z" fill="#3F3D56"/>
<path d="M316.2 269.193L298.236 315.639C297.811 316.737 296.984 317.633 295.923 318.144C294.862 318.655 293.645 318.744 292.521 318.392C292.487 318.381 292.451 318.37 292.417 318.358C292.356 318.338 292.296 318.316 292.235 318.292C292.235 318.292 292.018 318.19 291.623 318.003C291.224 317.814 290.644 317.538 289.921 317.19C289.704 317.087 289.476 316.977 289.235 316.86C288.755 316.628 288.228 316.374 287.663 316.098C287.438 315.989 287.205 315.874 286.968 315.758C285.753 315.165 284.394 314.495 282.965 313.779C282.723 313.659 282.48 313.537 282.235 313.413C282.171 313.38 282.105 313.348 282.04 313.315C281.022 312.802 279.978 312.27 278.932 311.729L278.738 311.63C276.937 310.696 275.136 309.742 273.463 308.817C272.176 308.107 270.965 307.414 269.888 306.764C269.537 306.552 269.202 306.346 268.881 306.144C268.818 306.105 268.756 306.066 268.694 306.026C266.438 304.592 265.04 303.446 265.25 302.904L283.213 256.459C283.433 255.891 283.762 255.372 284.183 254.931C284.603 254.49 285.107 254.137 285.664 253.89C286.221 253.644 286.822 253.51 287.431 253.495C288.04 253.48 288.646 253.586 289.215 253.805L291.799 254.803C291.997 254.881 292.158 255.031 292.25 255.223C292.342 255.415 292.358 255.634 292.296 255.837C292.288 255.866 292.281 255.894 292.275 255.923C292.239 256.14 292.279 256.362 292.389 256.552C292.5 256.742 292.673 256.887 292.879 256.963L308.706 263.073C308.91 263.155 309.136 263.164 309.345 263.098C309.555 263.031 309.734 262.894 309.853 262.709C309.869 262.684 309.882 262.658 309.896 262.632C309.986 262.439 310.146 262.288 310.343 262.208C310.54 262.128 310.76 262.125 310.959 262.2L313.544 263.198C314.112 263.417 314.632 263.746 315.073 264.166C315.514 264.586 315.868 265.089 316.115 265.646C316.362 266.203 316.496 266.802 316.511 267.411C316.525 268.02 316.42 268.625 316.2 269.193Z" fill="#81B29A"/>
<path d="M279.774 263.697C279.721 263.676 279.661 263.678 279.608 263.701C279.556 263.724 279.514 263.767 279.494 263.821L278.868 265.438C278.848 265.492 278.849 265.551 278.873 265.604C278.896 265.656 278.939 265.697 278.993 265.718C279.046 265.738 279.106 265.737 279.158 265.714C279.211 265.691 279.252 265.648 279.273 265.595L279.898 263.977C279.919 263.924 279.918 263.864 279.894 263.811C279.871 263.759 279.828 263.718 279.774 263.697Z" fill="#3F3D56"/>
<path d="M277.897 268.549C277.844 268.529 277.784 268.53 277.731 268.553C277.679 268.577 277.638 268.62 277.617 268.673L276.405 271.807C276.384 271.861 276.386 271.92 276.409 271.973C276.433 272.025 276.476 272.066 276.529 272.086C276.583 272.107 276.642 272.106 276.695 272.083C276.747 272.06 276.789 272.017 276.809 271.964L278.022 268.83C278.042 268.776 278.041 268.716 278.018 268.664C277.994 268.611 277.951 268.57 277.897 268.549Z" fill="#3F3D56"/>
<path d="M276.177 272.997C276.123 272.977 276.064 272.978 276.011 273.001C275.959 273.025 275.917 273.068 275.897 273.121L274.684 276.255C274.674 276.282 274.669 276.31 274.669 276.339C274.67 276.367 274.676 276.396 274.688 276.422C274.699 276.448 274.716 276.472 274.736 276.491C274.757 276.511 274.782 276.527 274.808 276.537C274.835 276.547 274.863 276.552 274.892 276.551C274.92 276.551 274.949 276.544 274.975 276.533C275.001 276.521 275.024 276.504 275.044 276.483C275.064 276.463 275.079 276.438 275.089 276.412L276.301 273.278C276.322 273.224 276.32 273.164 276.297 273.112C276.274 273.059 276.231 273.018 276.177 272.997Z" fill="#3F3D56"/>
<path d="M291.24 255.401L287.799 254.073C287.66 254.019 287.503 254.088 287.449 254.228C287.395 254.367 287.464 254.524 287.604 254.578L291.044 255.906C291.184 255.96 291.341 255.891 291.395 255.751C291.449 255.612 291.379 255.455 291.24 255.401Z" fill="#3F3D56"/>
<path d="M311.286 263.689C311.526 263.689 311.72 263.495 311.72 263.256C311.72 263.016 311.526 262.822 311.286 262.822C311.046 262.822 310.852 263.016 310.852 263.256C310.852 263.495 311.046 263.689 311.286 263.689Z" fill="#3F3D56"/>
<path d="M312.399 264.119C312.638 264.119 312.833 263.925 312.833 263.685C312.833 263.446 312.638 263.252 312.399 263.252C312.159 263.252 311.965 263.446 311.965 263.685C311.965 263.925 312.159 264.119 312.399 264.119Z" fill="#3F3D56"/>
<path d="M313.512 264.549C313.752 264.549 313.946 264.355 313.946 264.115C313.946 263.876 313.752 263.682 313.512 263.682C313.272 263.682 313.078 263.876 313.078 264.115C313.078 264.355 313.272 264.549 313.512 264.549Z" fill="#3F3D56"/>
<path fill-rule="evenodd" clip-rule="evenodd" d="M296.616 280.483C296.27 281.377 295.625 282.125 294.791 282.599C293.957 283.073 292.985 283.245 292.039 283.085L287.507 294.802C287.468 294.904 287.409 294.997 287.333 295.076C287.258 295.155 287.167 295.218 287.068 295.263C286.968 295.307 286.86 295.331 286.75 295.333C286.641 295.336 286.532 295.317 286.43 295.278C286.328 295.238 286.235 295.179 286.156 295.104C286.077 295.029 286.013 294.938 285.969 294.839C285.925 294.739 285.901 294.631 285.898 294.522C285.896 294.413 285.915 294.304 285.954 294.202L290.485 282.486C289.822 282.061 289.293 281.457 288.96 280.744C288.626 280.031 288.502 279.238 288.602 278.457C288.702 277.677 289.021 276.94 289.523 276.334C290.025 275.727 290.689 275.275 291.438 275.031C292.187 274.786 292.989 274.758 293.753 274.952C294.517 275.145 295.21 275.55 295.752 276.121C296.294 276.692 296.663 277.405 296.816 278.177C296.969 278.949 296.9 279.749 296.616 280.483Z" fill="white"/>
<path d="M249.087 125.403C248.687 126.435 247.943 127.298 246.98 127.846C246.018 128.393 244.895 128.592 243.802 128.407L238.571 141.935C238.525 142.052 238.457 142.16 238.37 142.252C238.283 142.343 238.179 142.417 238.063 142.468C237.948 142.519 237.823 142.547 237.697 142.55C237.57 142.553 237.445 142.532 237.327 142.486C237.209 142.441 237.101 142.372 237.01 142.285C236.918 142.198 236.845 142.094 236.794 141.978C236.743 141.863 236.715 141.738 236.712 141.612C236.709 141.486 236.731 141.36 236.777 141.242L242.009 127.715C241.243 127.225 240.633 126.527 240.248 125.704C239.863 124.881 239.72 123.965 239.835 123.064C239.95 122.163 240.319 121.312 240.898 120.612C241.478 119.912 242.244 119.39 243.109 119.108C243.973 118.825 244.9 118.793 245.782 119.016C246.664 119.239 247.464 119.707 248.09 120.367C248.716 121.026 249.142 121.849 249.318 122.74C249.495 123.632 249.415 124.555 249.087 125.403Z" fill="#81B29A"/>
</g>
<defs>
<clipPath id="clip0_18_1179">
<rect width="317" height="695" fill="white"/>
</clipPath>
</defs>
</svg>
